<?xml version="1.0" encoding="utf-8" standalone="no"?>
<!DOCTYPE svg PUBLIC "-//W3C//DTD SVG 1.1//EN"
  "http://www.w3.org/Graphics/SVG/1.1/DTD/svg11.dtd">
<svg xmlns:xlink="http://www.w3.org/1999/xlink" width="856.8pt" height="423.838125pt" viewBox="0 0 856.8 423.838125" xmlns="http://www.w3.org/2000/svg" version="1.1">
 <metadata>
  <rdf:RDF xmlns:dc="http://purl.org/dc/elements/1.1/" xmlns:cc="http://creativecommons.org/ns#" xmlns:rdf="http://www.w3.org/1999/02/22-rdf-syntax-ns#">
   <cc:Work>
    <dc:type rdf:resource="http://purl.org/dc/dcmitype/StillImage"/>
    <dc:date>2026-06-11T14:25:49.249690</dc:date>
    <dc:format>image/svg+xml</dc:format>
    <dc:creator>
     <cc:Agent>
      <dc:title>Matplotlib v3.10.9, https://matplotlib.org/</dc:title>
     </cc:Agent>
    </dc:creator>
   </cc:Work>
  </rdf:RDF>
 </metadata>
 <defs>
  <style type="text/css">*{stroke-linejoin: round; stroke-linecap: butt}</style>
 </defs>
 <g id="figure_1">
  <g id="patch_1">
   <path d="M 0 423.838125 
L 856.8 423.838125 
L 856.8 0 
L 0 0 
z
" style="fill: #ffffff"/>
  </g>
  <g id="axes_1">
   <g id="patch_2">
    <path d="M 96.696764 104.267243 
C 77.862718 126.712786 64.816767 153.437971 58.705423 182.094124 
C 52.594079 210.750277 53.60177 240.472607 61.639938 268.649043 
C 69.678106 296.825478 84.504174 322.605704 104.81519 343.724091 
C 125.126206 364.842479 150.30922 380.661712 178.151087 389.791559 
C 205.992954 398.921405 235.653456 401.086342 264.525956 396.096109 
C 293.398455 391.105877 320.611632 379.111071 343.773924 361.165825 
C 366.936217 343.220579 385.348629 319.866448 397.393033 293.155851 
C 409.437437 266.445255 414.750354 237.184269 412.864871 207.944423 
L 233.999874 219.478233 
z
" style="fill: #3572a5"/>
   </g>
   <g id="patch_3">
    <path d="M 412.864874 207.944423 
C 410.349079 168.929698 395.136021 131.78938 369.559336 102.220623 
C 343.98265 72.651867 309.420603 52.248134 271.175009 44.13935 
L 233.999874 219.478233 
z
" style="fill: #a97bff"/>
   </g>
   <g id="patch_4">
    <path d="M 271.175009 44.13935 
C 256.207019 40.965857 240.894085 39.722029 225.610144 40.438218 
C 210.326204 41.154418 195.19669 43.824769 180.591055 48.384071 
L 233.999874 219.478233 
z
" style="fill: #00add8"/>
   </g>
   <g id="patch_5">
    <path d="M 180.591055 48.384071 
C 172.125688 51.026623 163.868176 54.293766 155.886433 58.158652 
C 147.90469 62.023538 140.220702 66.475515 132.897965 71.477823 
L 233.999874 219.478233 
z
" style="fill: #f1e05a"/>
   </g>
   <g id="patch_6">
    <path d="M 132.897965 71.477823 
C 128.886141 74.218374 124.9874 77.120927 121.211421 80.17826 
C 117.435442 83.235593 113.785333 86.445206 110.270145 89.79913 
L 233.999874 219.478233 
z
" style="fill: #3178c6"/>
   </g>
   <g id="patch_7">
    <path d="M 110.270145 89.79913 
C 109.232879 90.788812 108.207601 91.790833 107.194372 92.805119 
C 106.181144 93.819405 105.180063 94.845859 104.191471 95.884161 
L 233.999874 219.478233 
z
" style="fill: #f34b7d"/>
   </g>
   <g id="patch_8">
    <path d="M 104.191471 95.884161 
C 103.531327 96.577498 102.876738 97.276113 102.22779 97.979941 
C 101.578842 98.683769 100.935535 99.392779 100.297943 100.106916 
L 233.999874 219.478233 
z
" style="fill: #9e9e9e"/>
   </g>
   <g id="patch_9">
    <path d="M 100.297943 100.106916 
C 99.916805 100.533811 99.537707 100.962533 99.160671 101.393061 
C 98.783635 101.823588 98.408672 102.255932 98.035781 102.690049 
L 233.999874 219.478233 
z
" style="fill: #384d54"/>
   </g>
   <g id="patch_10">
    <path d="M 98.035781 102.690049 
C 97.81111 102.951609 97.587145 103.213874 97.363992 103.476726 
C 97.140838 103.739579 96.918497 104.002997 96.696861 104.267132 
L 233.999874 219.478233 
z
" style="fill: #89e051"/>
   </g>
   <g id="matplotlib.axis_1"/>
   <g id="matplotlib.axis_2"/>
   <g id="text_1">
    <!-- Language Usage (HTML/CSS excluded) -->
    <g transform="translate(117.653437 16.318125) scale(0.12 -0.12)">
     <defs>
      <path id="DejaVuSans-4c" d="M 628 4666 
L 1259 4666 
L 1259 531 
L 3531 531 
L 3531 0 
L 628 0 
L 628 4666 
z
" transform="scale(0.015625)"/>
      <path id="DejaVuSans-61" d="M 2194 1759 
Q 1497 1759 1228 1600 
Q 959 1441 959 1056 
Q 959 750 1161 570 
Q 1363 391 1709 391 
Q 2188 391 2477 730 
Q 2766 1069 2766 1631 
L 2766 1759 
L 2194 1759 
z
M 3341 1997 
L 3341 0 
L 2766 0 
L 2766 531 
Q 2569 213 2275 61 
Q 1981 -91 1556 -91 
Q 1019 -91 701 211 
Q 384 513 384 1019 
Q 384 1609 779 1909 
Q 1175 2209 1959 2209 
L 2766 2209 
L 2766 2266 
Q 2766 2663 2505 2880 
Q 2244 3097 1772 3097 
Q 1472 3097 1187 3025 
Q 903 2953 641 2809 
L 641 3341 
Q 956 3463 1253 3523 
Q 1550 3584 1831 3584 
Q 2591 3584 2966 3190 
Q 3341 2797 3341 1997 
z
" transform="scale(0.015625)"/>
      <path id="DejaVuSans-6e" d="M 3513 2113 
L 3513 0 
L 2938 0 
L 2938 2094 
Q 2938 2591 2744 2837 
Q 2550 3084 2163 3084 
Q 1697 3084 1428 2787 
Q 1159 2491 1159 1978 
L 1159 0 
L 581 0 
L 581 3500 
L 1159 3500 
L 1159 2956 
Q 1366 3272 1645 3428 
Q 1925 3584 2291 3584 
Q 2894 3584 3203 3211 
Q 3513 2838 3513 2113 
z
" transform="scale(0.015625)"/>
      <path id="DejaVuSans-67" d="M 2906 1791 
Q 2906 2416 2648 2759 
Q 2391 3103 1925 3103 
Q 1463 3103 1205 2759 
Q 947 2416 947 1791 
Q 947 1169 1205 825 
Q 1463 481 1925 481 
Q 2391 481 2648 825 
Q 2906 1169 2906 1791 
z
M 3481 434 
Q 3481 -459 3084 -895 
Q 2688 -1331 1869 -1331 
Q 1566 -1331 1297 -1286 
Q 1028 -1241 775 -1147 
L 775 -588 
Q 1028 -725 1275 -790 
Q 1522 -856 1778 -856 
Q 2344 -856 2625 -561 
Q 2906 -266 2906 331 
L 2906 616 
Q 2728 306 2450 153 
Q 2172 0 1784 0 
Q 1141 0 747 490 
Q 353 981 353 1791 
Q 353 2603 747 3093 
Q 1141 3584 1784 3584 
Q 2172 3584 2450 3431 
Q 2728 3278 2906 2969 
L 2906 3500 
L 3481 3500 
L 3481 434 
z
" transform="scale(0.015625)"/>
      <path id="DejaVuSans-75" d="M 544 1381 
L 544 3500 
L 1119 3500 
L 1119 1403 
Q 1119 906 1312 657 
Q 1506 409 1894 409 
Q 2359 409 2629 706 
Q 2900 1003 2900 1516 
L 2900 3500 
L 3475 3500 
L 3475 0 
L 2900 0 
L 2900 538 
Q 2691 219 2414 64 
Q 2138 -91 1772 -91 
Q 1169 -91 856 284 
Q 544 659 544 1381 
z
M 1991 3584 
L 1991 3584 
z
" transform="scale(0.015625)"/>
      <path id="DejaVuSans-65" d="M 3597 1894 
L 3597 1613 
L 953 1613 
Q 991 1019 1311 708 
Q 1631 397 2203 397 
Q 2534 397 2845 478 
Q 3156 559 3463 722 
L 3463 178 
Q 3153 47 2828 -22 
Q 2503 -91 2169 -91 
Q 1331 -91 842 396 
Q 353 884 353 1716 
Q 353 2575 817 3079 
Q 1281 3584 2069 3584 
Q 2775 3584 3186 3129 
Q 3597 2675 3597 1894 
z
M 3022 2063 
Q 3016 2534 2758 2815 
Q 2500 3097 2075 3097 
Q 1594 3097 1305 2825 
Q 1016 2553 972 2059 
L 3022 2063 
z
" transform="scale(0.015625)"/>
      <path id="DejaVuSans-20" transform="scale(0.015625)"/>
      <path id="DejaVuSans-55" d="M 556 4666 
L 1191 4666 
L 1191 1831 
Q 1191 1081 1462 751 
Q 1734 422 2344 422 
Q 2950 422 3222 751 
Q 3494 1081 3494 1831 
L 3494 4666 
L 4128 4666 
L 4128 1753 
Q 4128 841 3676 375 
Q 3225 -91 2344 -91 
Q 1459 -91 1007 375 
Q 556 841 556 1753 
L 556 4666 
z
" transform="scale(0.015625)"/>
      <path id="DejaVuSans-73" d="M 2834 3397 
L 2834 2853 
Q 2591 2978 2328 3040 
Q 2066 3103 1784 3103 
Q 1356 3103 1142 2972 
Q 928 2841 928 2578 
Q 928 2378 1081 2264 
Q 1234 2150 1697 2047 
L 1894 2003 
Q 2506 1872 2764 1633 
Q 3022 1394 3022 966 
Q 3022 478 2636 193 
Q 2250 -91 1575 -91 
Q 1294 -91 989 -36 
Q 684 19 347 128 
L 347 722 
Q 666 556 975 473 
Q 1284 391 1588 391 
Q 1994 391 2212 530 
Q 2431 669 2431 922 
Q 2431 1156 2273 1281 
Q 2116 1406 1581 1522 
L 1381 1569 
Q 847 1681 609 1914 
Q 372 2147 372 2553 
Q 372 3047 722 3315 
Q 1072 3584 1716 3584 
Q 2034 3584 2315 3537 
Q 2597 3491 2834 3397 
z
" transform="scale(0.015625)"/>
      <path id="DejaVuSans-28" d="M 1984 4856 
Q 1566 4138 1362 3434 
Q 1159 2731 1159 2009 
Q 1159 1288 1364 580 
Q 1569 -128 1984 -844 
L 1484 -844 
Q 1016 -109 783 600 
Q 550 1309 550 2009 
Q 550 2706 781 3412 
Q 1013 4119 1484 4856 
L 1984 4856 
z
" transform="scale(0.015625)"/>
      <path id="DejaVuSans-48" d="M 628 4666 
L 1259 4666 
L 1259 2753 
L 3553 2753 
L 3553 4666 
L 4184 4666 
L 4184 0 
L 3553 0 
L 3553 2222 
L 1259 2222 
L 1259 0 
L 628 0 
L 628 4666 
z
" transform="scale(0.015625)"/>
      <path id="DejaVuSans-54" d="M -19 4666 
L 3928 4666 
L 3928 4134 
L 2272 4134 
L 2272 0 
L 1638 0 
L 1638 4134 
L -19 4134 
L -19 4666 
z
" transform="scale(0.015625)"/>
      <path id="DejaVuSans-4d" d="M 628 4666 
L 1569 4666 
L 2759 1491 
L 3956 4666 
L 4897 4666 
L 4897 0 
L 4281 0 
L 4281 4097 
L 3078 897 
L 2444 897 
L 1241 4097 
L 1241 0 
L 628 0 
L 628 4666 
z
" transform="scale(0.015625)"/>
      <path id="DejaVuSans-2f" d="M 1625 4666 
L 2156 4666 
L 531 -594 
L 0 -594 
L 1625 4666 
z
" transform="scale(0.015625)"/>
      <path id="DejaVuSans-43" d="M 4122 4306 
L 4122 3641 
Q 3803 3938 3442 4084 
Q 3081 4231 2675 4231 
Q 1875 4231 1450 3742 
Q 1025 3253 1025 2328 
Q 1025 1406 1450 917 
Q 1875 428 2675 428 
Q 3081 428 3442 575 
Q 3803 722 4122 1019 
L 4122 359 
Q 3791 134 3420 21 
Q 3050 -91 2638 -91 
Q 1578 -91 968 557 
Q 359 1206 359 2328 
Q 359 3453 968 4101 
Q 1578 4750 2638 4750 
Q 3056 4750 3426 4639 
Q 3797 4528 4122 4306 
z
" transform="scale(0.015625)"/>
      <path id="DejaVuSans-53" d="M 3425 4513 
L 3425 3897 
Q 3066 4069 2747 4153 
Q 2428 4238 2131 4238 
Q 1616 4238 1336 4038 
Q 1056 3838 1056 3469 
Q 1056 3159 1242 3001 
Q 1428 2844 1947 2747 
L 2328 2669 
Q 3034 2534 3370 2195 
Q 3706 1856 3706 1288 
Q 3706 609 3251 259 
Q 2797 -91 1919 -91 
Q 1588 -91 1214 -16 
Q 841 59 441 206 
L 441 856 
Q 825 641 1194 531 
Q 1563 422 1919 422 
Q 2459 422 2753 634 
Q 3047 847 3047 1241 
Q 3047 1584 2836 1778 
Q 2625 1972 2144 2069 
L 1759 2144 
Q 1053 2284 737 2584 
Q 422 2884 422 3419 
Q 422 4038 858 4394 
Q 1294 4750 2059 4750 
Q 2388 4750 2728 4690 
Q 3069 4631 3425 4513 
z
" transform="scale(0.015625)"/>
      <path id="DejaVuSans-78" d="M 3513 3500 
L 2247 1797 
L 3578 0 
L 2900 0 
L 1881 1375 
L 863 0 
L 184 0 
L 1544 1831 
L 300 3500 
L 978 3500 
L 1906 2253 
L 2834 3500 
L 3513 3500 
z
" transform="scale(0.015625)"/>
      <path id="DejaVuSans-63" d="M 3122 3366 
L 3122 2828 
Q 2878 2963 2633 3030 
Q 2388 3097 2138 3097 
Q 1578 3097 1268 2742 
Q 959 2388 959 1747 
Q 959 1106 1268 751 
Q 1578 397 2138 397 
Q 2388 397 2633 464 
Q 2878 531 3122 666 
L 3122 134 
Q 2881 22 2623 -34 
Q 2366 -91 2075 -91 
Q 1284 -91 818 406 
Q 353 903 353 1747 
Q 353 2603 823 3093 
Q 1294 3584 2113 3584 
Q 2378 3584 2631 3529 
Q 2884 3475 3122 3366 
z
" transform="scale(0.015625)"/>
      <path id="DejaVuSans-6c" d="M 603 4863 
L 1178 4863 
L 1178 0 
L 603 0 
L 603 4863 
z
" transform="scale(0.015625)"/>
      <path id="DejaVuSans-64" d="M 2906 2969 
L 2906 4863 
L 3481 4863 
L 3481 0 
L 2906 0 
L 2906 525 
Q 2725 213 2448 61 
Q 2172 -91 1784 -91 
Q 1150 -91 751 415 
Q 353 922 353 1747 
Q 353 2572 751 3078 
Q 1150 3584 1784 3584 
Q 2172 3584 2448 3432 
Q 2725 3281 2906 2969 
z
M 947 1747 
Q 947 1113 1208 752 
Q 1469 391 1925 391 
Q 2381 391 2643 752 
Q 2906 1113 2906 1747 
Q 2906 2381 2643 2742 
Q 2381 3103 1925 3103 
Q 1469 3103 1208 2742 
Q 947 2381 947 1747 
z
" transform="scale(0.015625)"/>
      <path id="DejaVuSans-29" d="M 513 4856 
L 1013 4856 
Q 1481 4119 1714 3412 
Q 1947 2706 1947 2009 
Q 1947 1309 1714 600 
Q 1481 -109 1013 -844 
L 513 -844 
Q 928 -128 1133 580 
Q 1338 1288 1338 2009 
Q 1338 2731 1133 3434 
Q 928 4138 513 4856 
z
" transform="scale(0.015625)"/>
     </defs>
     <use xlink:href="#DejaVuSans-4c"/>
     <use xlink:href="#DejaVuSans-61" transform="translate(55.712891 0)"/>
     <use xlink:href="#DejaVuSans-6e" transform="translate(116.992188 0)"/>
     <use xlink:href="#DejaVuSans-67" transform="translate(180.371094 0)"/>
     <use xlink:href="#DejaVuSans-75" transform="translate(243.847656 0)"/>
     <use xlink:href="#DejaVuSans-61" transform="translate(307.226562 0)"/>
     <use xlink:href="#DejaVuSans-67" transform="translate(368.505859 0)"/>
     <use xlink:href="#DejaVuSans-65" transform="translate(431.982422 0)"/>
     <use xlink:href="#DejaVuSans-20" transform="translate(493.505859 0)"/>
     <use xlink:href="#DejaVuSans-55" transform="translate(525.292969 0)"/>
     <use xlink:href="#DejaVuSans-73" transform="translate(598.486328 0)"/>
     <use xlink:href="#DejaVuSans-61" transform="translate(650.585938 0)"/>
     <use xlink:href="#DejaVuSans-67" transform="translate(711.865234 0)"/>
     <use xlink:href="#DejaVuSans-65" transform="translate(775.341797 0)"/>
     <use xlink:href="#DejaVuSans-20" transform="translate(836.865234 0)"/>
     <use xlink:href="#DejaVuSans-28" transform="translate(868.652344 0)"/>
     <use xlink:href="#DejaVuSans-48" transform="translate(907.666016 0)"/>
     <use xlink:href="#DejaVuSans-54" transform="translate(982.861328 0)"/>
     <use xlink:href="#DejaVuSans-4d" transform="translate(1043.945312 0)"/>
     <use xlink:href="#DejaVuSans-4c" transform="translate(1130.224609 0)"/>
     <use xlink:href="#DejaVuSans-2f" transform="translate(1185.9375 0)"/>
     <use xlink:href="#DejaVuSans-43" transform="translate(1219.628906 0)"/>
     <use xlink:href="#DejaVuSans-53" transform="translate(1289.453125 0)"/>
     <use xlink:href="#DejaVuSans-53" transform="translate(1352.929688 0)"/>
     <use xlink:href="#DejaVuSans-20" transform="translate(1416.40625 0)"/>
     <use xlink:href="#DejaVuSans-65" transform="translate(1448.193359 0)"/>
     <use xlink:href="#DejaVuSans-78" transform="translate(1507.966797 0)"/>
     <use xlink:href="#DejaVuSans-63" transform="translate(1565.396484 0)"/>
     <use xlink:href="#DejaVuSans-6c" transform="translate(1620.376953 0)"/>
     <use xlink:href="#DejaVuSans-75" transform="translate(1648.160156 0)"/>
     <use xlink:href="#DejaVuSans-64" transform="translate(1711.539062 0)"/>
     <use xlink:href="#DejaVuSans-65" transform="translate(1775.015625 0)"/>
     <use xlink:href="#DejaVuSans-64" transform="translate(1836.539062 0)"/>
     <use xlink:href="#DejaVuSans-29" transform="translate(1900.015625 0)"/>
    </g>
   </g>
  </g>
  <g id="axes_2">
   <g id="patch_11">
    <path d="M 490.5 73.579725 
L 501.84 73.579725 
L 501.84 61.750125 
L 490.5 61.750125 
z
" clip-path="url(#p4009ca493a)" style="fill: #3572a5; stroke: #3572a5; stroke-linejoin: miter"/>
   </g>
   <g id="patch_12">
    <path d="M 490.5 105.125325 
L 501.84 105.125325 
L 501.84 93.295725 
L 490.5 93.295725 
z
" clip-path="url(#p4009ca493a)" style="fill: #a97bff; stroke: #a97bff; stroke-linejoin: miter"/>
   </g>
   <g id="patch_13">
    <path d="M 490.5 136.670925 
L 501.84 136.670925 
L 501.84 124.841325 
L 490.5 124.841325 
z
" clip-path="url(#p4009ca493a)" style="fill: #00add8; stroke: #00add8; stroke-linejoin: miter"/>
   </g>
   <g id="patch_14">
    <path d="M 490.5 168.216525 
L 501.84 168.216525 
L 501.84 156.386925 
L 490.5 156.386925 
z
" clip-path="url(#p4009ca493a)" style="fill: #f1e05a; stroke: #f1e05a; stroke-linejoin: miter"/>
   </g>
   <g id="patch_15">
    <path d="M 490.5 231.307725 
L 501.84 231.307725 
L 501.84 219.478125 
L 490.5 219.478125 
z
" clip-path="url(#p4009ca493a)" style="fill: #3178c6; stroke: #3178c6; stroke-linejoin: miter"/>
   </g>
   <g id="patch_16">
    <path d="M 490.5 258.910125 
L 501.84 258.910125 
L 501.84 247.080525 
L 490.5 247.080525 
z
" clip-path="url(#p4009ca493a)" style="fill: #f34b7d; stroke: #f34b7d; stroke-linejoin: miter"/>
   </g>
   <g id="patch_17">
    <path d="M 490.5 286.512525 
L 501.84 286.512525 
L 501.84 274.682925 
L 490.5 274.682925 
z
" clip-path="url(#p4009ca493a)" style="fill: #9e9e9e; stroke: #9e9e9e; stroke-linejoin: miter"/>
   </g>
   <g id="patch_18">
    <path d="M 490.5 314.114925 
L 501.84 314.114925 
L 501.84 302.285325 
L 490.5 302.285325 
z
" clip-path="url(#p4009ca493a)" style="fill: #384d54; stroke: #384d54; stroke-linejoin: miter"/>
   </g>
   <g id="patch_19">
    <path d="M 490.5 341.717325 
L 501.84 341.717325 
L 501.84 329.887725 
L 490.5 329.887725 
z
" clip-path="url(#p4009ca493a)" style="fill: #89e051; stroke: #89e051; stroke-linejoin: miter"/>
   </g>
   <g id="text_2">
    <!-- Python -->
    <g transform="translate(509.4 64.5095) scale(0.1 -0.1)">
     <defs>
      <path id="DejaVuSans-50" d="M 1259 4147 
L 1259 2394 
L 2053 2394 
Q 2494 2394 2734 2622 
Q 2975 2850 2975 3272 
Q 2975 3691 2734 3919 
Q 2494 4147 2053 4147 
L 1259 4147 
z
M 628 4666 
L 2053 4666 
Q 2838 4666 3239 4311 
Q 3641 3956 3641 3272 
Q 3641 2581 3239 2228 
Q 2838 1875 2053 1875 
L 1259 1875 
L 1259 0 
L 628 0 
L 628 4666 
z
" transform="scale(0.015625)"/>
      <path id="DejaVuSans-79" d="M 2059 -325 
Q 1816 -950 1584 -1140 
Q 1353 -1331 966 -1331 
L 506 -1331 
L 506 -850 
L 844 -850 
Q 1081 -850 1212 -737 
Q 1344 -625 1503 -206 
L 1606 56 
L 191 3500 
L 800 3500 
L 1894 763 
L 2988 3500 
L 3597 3500 
L 2059 -325 
z
" transform="scale(0.015625)"/>
      <path id="DejaVuSans-74" d="M 1172 4494 
L 1172 3500 
L 2356 3500 
L 2356 3053 
L 1172 3053 
L 1172 1153 
Q 1172 725 1289 603 
Q 1406 481 1766 481 
L 2356 481 
L 2356 0 
L 1766 0 
Q 1100 0 847 248 
Q 594 497 594 1153 
L 594 3053 
L 172 3053 
L 172 3500 
L 594 3500 
L 594 4494 
L 1172 4494 
z
" transform="scale(0.015625)"/>
      <path id="DejaVuSans-68" d="M 3513 2113 
L 3513 0 
L 2938 0 
L 2938 2094 
Q 2938 2591 2744 2837 
Q 2550 3084 2163 3084 
Q 1697 3084 1428 2787 
Q 1159 2491 1159 1978 
L 1159 0 
L 581 0 
L 581 4863 
L 1159 4863 
L 1159 2956 
Q 1366 3272 1645 3428 
Q 1925 3584 2291 3584 
Q 2894 3584 3203 3211 
Q 3513 2838 3513 2113 
z
" transform="scale(0.015625)"/>
      <path id="DejaVuSans-6f" d="M 1959 3097 
Q 1497 3097 1228 2736 
Q 959 2375 959 1747 
Q 959 1119 1226 758 
Q 1494 397 1959 397 
Q 2419 397 2687 759 
Q 2956 1122 2956 1747 
Q 2956 2369 2687 2733 
Q 2419 3097 1959 3097 
z
M 1959 3584 
Q 2709 3584 3137 3096 
Q 3566 2609 3566 1747 
Q 3566 888 3137 398 
Q 2709 -91 1959 -91 
Q 1206 -91 779 398 
Q 353 888 353 1747 
Q 353 2609 779 3096 
Q 1206 3584 1959 3584 
z
" transform="scale(0.015625)"/>
     </defs>
     <use xlink:href="#DejaVuSans-50"/>
     <use xlink:href="#DejaVuSans-79" transform="translate(60.302734 0)"/>
     <use xlink:href="#DejaVuSans-74" transform="translate(119.482422 0)"/>
     <use xlink:href="#DejaVuSans-68" transform="translate(158.691406 0)"/>
     <use xlink:href="#DejaVuSans-6f" transform="translate(222.070312 0)"/>
     <use xlink:href="#DejaVuSans-6e" transform="translate(283.251953 0)"/>
    </g>
   </g>
   <g id="text_3">
    <!-- Kotlin -->
    <g transform="translate(509.4 96.0551) scale(0.1 -0.1)">
     <defs>
      <path id="DejaVuSans-4b" d="M 628 4666 
L 1259 4666 
L 1259 2694 
L 3353 4666 
L 4166 4666 
L 1850 2491 
L 4331 0 
L 3500 0 
L 1259 2247 
L 1259 0 
L 628 0 
L 628 4666 
z
" transform="scale(0.015625)"/>
      <path id="DejaVuSans-69" d="M 603 3500 
L 1178 3500 
L 1178 0 
L 603 0 
L 603 3500 
z
M 603 4863 
L 1178 4863 
L 1178 4134 
L 603 4134 
L 603 4863 
z
" transform="scale(0.015625)"/>
     </defs>
     <use xlink:href="#DejaVuSans-4b"/>
     <use xlink:href="#DejaVuSans-6f" transform="translate(60.576172 0)"/>
     <use xlink:href="#DejaVuSans-74" transform="translate(121.757812 0)"/>
     <use xlink:href="#DejaVuSans-6c" transform="translate(160.966797 0)"/>
     <use xlink:href="#DejaVuSans-69" transform="translate(188.75 0)"/>
     <use xlink:href="#DejaVuSans-6e" transform="translate(216.533203 0)"/>
    </g>
   </g>
   <g id="text_4">
    <!-- Go -->
    <g transform="translate(509.4 127.6007) scale(0.1 -0.1)">
     <defs>
      <path id="DejaVuSans-47" d="M 3809 666 
L 3809 1919 
L 2778 1919 
L 2778 2438 
L 4434 2438 
L 4434 434 
Q 4069 175 3628 42 
Q 3188 -91 2688 -91 
Q 1594 -91 976 548 
Q 359 1188 359 2328 
Q 359 3472 976 4111 
Q 1594 4750 2688 4750 
Q 3144 4750 3555 4637 
Q 3966 4525 4313 4306 
L 4313 3634 
Q 3963 3931 3569 4081 
Q 3175 4231 2741 4231 
Q 1884 4231 1454 3753 
Q 1025 3275 1025 2328 
Q 1025 1384 1454 906 
Q 1884 428 2741 428 
Q 3075 428 3337 486 
Q 3600 544 3809 666 
z
" transform="scale(0.015625)"/>
     </defs>
     <use xlink:href="#DejaVuSans-47"/>
     <use xlink:href="#DejaVuSans-6f" transform="translate(77.490234 0)"/>
    </g>
   </g>
   <g id="text_5">
    <!-- JavaScript -->
    <g transform="translate(509.4 159.1463) scale(0.1 -0.1)">
     <defs>
      <path id="DejaVuSans-4a" d="M 628 4666 
L 1259 4666 
L 1259 325 
Q 1259 -519 939 -900 
Q 619 -1281 -91 -1281 
L -331 -1281 
L -331 -750 
L -134 -750 
Q 284 -750 456 -515 
Q 628 -281 628 325 
L 628 4666 
z
" transform="scale(0.015625)"/>
      <path id="DejaVuSans-76" d="M 191 3500 
L 800 3500 
L 1894 563 
L 2988 3500 
L 3597 3500 
L 2284 0 
L 1503 0 
L 191 3500 
z
" transform="scale(0.015625)"/>
      <path id="DejaVuSans-72" d="M 2631 2963 
Q 2534 3019 2420 3045 
Q 2306 3072 2169 3072 
Q 1681 3072 1420 2755 
Q 1159 2438 1159 1844 
L 1159 0 
L 581 0 
L 581 3500 
L 1159 3500 
L 1159 2956 
Q 1341 3275 1631 3429 
Q 1922 3584 2338 3584 
Q 2397 3584 2469 3576 
Q 2541 3569 2628 3553 
L 2631 2963 
z
" transform="scale(0.015625)"/>
      <path id="DejaVuSans-70" d="M 1159 525 
L 1159 -1331 
L 581 -1331 
L 581 3500 
L 1159 3500 
L 1159 2969 
Q 1341 3281 1617 3432 
Q 1894 3584 2278 3584 
Q 2916 3584 3314 3078 
Q 3713 2572 3713 1747 
Q 3713 922 3314 415 
Q 2916 -91 2278 -91 
Q 1894 -91 1617 61 
Q 1341 213 1159 525 
z
M 3116 1747 
Q 3116 2381 2855 2742 
Q 2594 3103 2138 3103 
Q 1681 3103 1420 2742 
Q 1159 2381 1159 1747 
Q 1159 1113 1420 752 
Q 1681 391 2138 391 
Q 2594 391 2855 752 
Q 3116 1113 3116 1747 
z
" transform="scale(0.015625)"/>
     </defs>
     <use xlink:href="#DejaVuSans-4a"/>
     <use xlink:href="#DejaVuSans-61" transform="translate(29.492188 0)"/>
     <use xlink:href="#DejaVuSans-76" transform="translate(90.771484 0)"/>
     <use xlink:href="#DejaVuSans-61" transform="translate(149.951172 0)"/>
     <use xlink:href="#DejaVuSans-53" transform="translate(211.230469 0)"/>
     <use xlink:href="#DejaVuSans-63" transform="translate(274.707031 0)"/>
     <use xlink:href="#DejaVuSans-72" transform="translate(329.6875 0)"/>
     <use xlink:href="#DejaVuSans-69" transform="translate(370.800781 0)"/>
     <use xlink:href="#DejaVuSans-70" transform="translate(398.583984 0)"/>
     <use xlink:href="#DejaVuSans-74" transform="translate(462.060547 0)"/>
    </g>
   </g>
   <g id="text_6">
    <!-- ────────── -->
    <g transform="translate(490.5 187.932525) scale(0.1 -0.1)">
     <defs>
      <path id="DejaVuSans-2500" d="M -63 1931 
L -63 2469 
L 3916 2469 
L 3916 1931 
L -63 1931 
z
" transform="scale(0.015625)"/>
     </defs>
     <use xlink:href="#DejaVuSans-2500"/>
     <use xlink:href="#DejaVuSans-2500" transform="translate(60.205078 0)"/>
     <use xlink:href="#DejaVuSans-2500" transform="translate(120.410156 0)"/>
     <use xlink:href="#DejaVuSans-2500" transform="translate(180.615234 0)"/>
     <use xlink:href="#DejaVuSans-2500" transform="translate(240.820312 0)"/>
     <use xlink:href="#DejaVuSans-2500" transform="translate(301.025391 0)"/>
     <use xlink:href="#DejaVuSans-2500" transform="translate(361.230469 0)"/>
     <use xlink:href="#DejaVuSans-2500" transform="translate(421.435547 0)"/>
     <use xlink:href="#DejaVuSans-2500" transform="translate(481.640625 0)"/>
     <use xlink:href="#DejaVuSans-2500" transform="translate(541.845703 0)"/>
    </g>
   </g>
   <g id="text_7">
    <!-- TypeScript -->
    <g transform="translate(509.4 222.2375) scale(0.1 -0.1)">
     <use xlink:href="#DejaVuSans-54"/>
     <use xlink:href="#DejaVuSans-79" transform="translate(45.458984 0)"/>
     <use xlink:href="#DejaVuSans-70" transform="translate(104.638672 0)"/>
     <use xlink:href="#DejaVuSans-65" transform="translate(168.115234 0)"/>
     <use xlink:href="#DejaVuSans-53" transform="translate(229.638672 0)"/>
     <use xlink:href="#DejaVuSans-63" transform="translate(293.115234 0)"/>
     <use xlink:href="#DejaVuSans-72" transform="translate(348.095703 0)"/>
     <use xlink:href="#DejaVuSans-69" transform="translate(389.208984 0)"/>
     <use xlink:href="#DejaVuSans-70" transform="translate(416.992188 0)"/>
     <use xlink:href="#DejaVuSans-74" transform="translate(480.46875 0)"/>
    </g>
   </g>
   <g id="text_8">
    <!-- C++ -->
    <g transform="translate(509.4 249.8399) scale(0.1 -0.1)">
     <defs>
      <path id="DejaVuSans-2b" d="M 2944 4013 
L 2944 2272 
L 4684 2272 
L 4684 1741 
L 2944 1741 
L 2944 0 
L 2419 0 
L 2419 1741 
L 678 1741 
L 678 2272 
L 2419 2272 
L 2419 4013 
L 2944 4013 
z
" transform="scale(0.015625)"/>
     </defs>
     <use xlink:href="#DejaVuSans-43"/>
     <use xlink:href="#DejaVuSans-2b" transform="translate(69.824219 0)"/>
     <use xlink:href="#DejaVuSans-2b" transform="translate(153.613281 0)"/>
    </g>
   </g>
   <g id="text_9">
    <!-- CMake -->
    <g transform="translate(509.4 277.4423) scale(0.1 -0.1)">
     <defs>
      <path id="DejaVuSans-6b" d="M 581 4863 
L 1159 4863 
L 1159 1991 
L 2875 3500 
L 3609 3500 
L 1753 1863 
L 3688 0 
L 2938 0 
L 1159 1709 
L 1159 0 
L 581 0 
L 581 4863 
z
" transform="scale(0.015625)"/>
     </defs>
     <use xlink:href="#DejaVuSans-43"/>
     <use xlink:href="#DejaVuSans-4d" transform="translate(69.824219 0)"/>
     <use xlink:href="#DejaVuSans-61" transform="translate(156.103516 0)"/>
     <use xlink:href="#DejaVuSans-6b" transform="translate(217.382812 0)"/>
     <use xlink:href="#DejaVuSans-65" transform="translate(271.667969 0)"/>
    </g>
   </g>
   <g id="text_10">
    <!-- Dockerfile -->
    <g transform="translate(509.4 305.0447) scale(0.1 -0.1)">
     <defs>
      <path id="DejaVuSans-44" d="M 1259 4147 
L 1259 519 
L 2022 519 
Q 2988 519 3436 956 
Q 3884 1394 3884 2338 
Q 3884 3275 3436 3711 
Q 2988 4147 2022 4147 
L 1259 4147 
z
M 628 4666 
L 1925 4666 
Q 3281 4666 3915 4102 
Q 4550 3538 4550 2338 
Q 4550 1131 3912 565 
Q 3275 0 1925 0 
L 628 0 
L 628 4666 
z
" transform="scale(0.015625)"/>
      <path id="DejaVuSans-66" d="M 2375 4863 
L 2375 4384 
L 1825 4384 
Q 1516 4384 1395 4259 
Q 1275 4134 1275 3809 
L 1275 3500 
L 2222 3500 
L 2222 3053 
L 1275 3053 
L 1275 0 
L 697 0 
L 697 3053 
L 147 3053 
L 147 3500 
L 697 3500 
L 697 3744 
Q 697 4328 969 4595 
Q 1241 4863 1831 4863 
L 2375 4863 
z
" transform="scale(0.015625)"/>
     </defs>
     <use xlink:href="#DejaVuSans-44"/>
     <use xlink:href="#DejaVuSans-6f" transform="translate(77.001953 0)"/>
     <use xlink:href="#DejaVuSans-63" transform="translate(138.183594 0)"/>
     <use xlink:href="#DejaVuSans-6b" transform="translate(193.164062 0)"/>
     <use xlink:href="#DejaVuSans-65" transform="translate(247.449219 0)"/>
     <use xlink:href="#DejaVuSans-72" transform="translate(308.972656 0)"/>
     <use xlink:href="#DejaVuSans-66" transform="translate(350.085938 0)"/>
     <use xlink:href="#DejaVuSans-69" transform="translate(385.291016 0)"/>
     <use xlink:href="#DejaVuSans-6c" transform="translate(413.074219 0)"/>
     <use xlink:href="#DejaVuSans-65" transform="translate(440.857422 0)"/>
    </g>
   </g>
   <g id="text_11">
    <!-- Shell -->
    <g transform="translate(509.4 332.6471) scale(0.1 -0.1)">
     <use xlink:href="#DejaVuSans-53"/>
     <use xlink:href="#DejaVuSans-68" transform="translate(63.476562 0)"/>
     <use xlink:href="#DejaVuSans-65" transform="translate(126.855469 0)"/>
     <use xlink:href="#DejaVuSans-6c" transform="translate(188.378906 0)"/>
     <use xlink:href="#DejaVuSans-6c" transform="translate(216.162109 0)"/>
    </g>
   </g>
  </g>
 </g>
 <defs>
  <clipPath id="p4009ca493a">
   <rect x="471.6" y="22.318125" width="378" height="394.32"/>
  </clipPath>
 </defs>
</svg>
